<svg width="64" height="60" viewBox="0 0 64 60" fill="none" xmlns="http://www.w3.org/2000/svg">
<path d="M60.9882 0.823512L54.4 1.48234C53.647 1.57645 53.0823 2.04704 52.8941 2.61175C51.5764 2.8941 50.447 3.64704 49.5059 4.58822L11.7647 46.9412L2.44703 39.7882C2.07056 39.5059 1.41174 39.5059 1.12938 39.9765C0.84703 40.3529 0.941147 40.9176 1.31762 41.2941C2.44703 42.2353 -2.82356 38 12.5176 50.1412C11.8588 51.0823 11.4823 52.2117 11.4823 53.4353C11.4823 56.6353 14.0235 59.1765 17.2235 59.1765C20.4235 59.1765 22.9647 56.6353 22.9647 53.4353C22.9647 52.1176 22.4941 50.8941 21.7411 49.9529L52.5176 21.5294C55.0588 19.1765 55.0588 15.3176 52.7059 12.8706L48.4706 8.63528L50.9176 5.90586C51.4823 5.24704 52.3294 4.77645 53.1764 4.4941C53.5529 4.96469 54.0235 5.15292 54.5882 5.15292C54.7764 5.15292 54.0235 5.24704 61.3647 4.4941C62.4 4.39998 63.1529 3.45881 63.0588 2.42351C62.9647 1.48234 62.0235 0.729394 60.9882 0.823512ZM40 30.6588L33.7882 25.1059L39.7176 18.4235L46.4941 24.5412L40 30.6588ZM31.4353 38.5647L25.8823 33.9529L32.5647 26.5176L38.5882 31.8823L31.4353 38.5647ZM24.4706 44.9647L19.6706 40.8235L24.5647 35.3647L30.0235 39.8823L24.4706 44.9647ZM17.2235 47.6941C15.9059 47.6941 14.7764 48.1647 13.8353 48.8235L13.1764 48.1647L18.447 42.2353L23.1529 46.2823L20.5176 48.7294C19.5764 48.0706 18.447 47.6941 17.2235 47.6941ZM17.2235 57.2941C15.0588 57.2941 13.3647 55.5059 13.3647 53.4353C13.3647 51.2706 15.1529 49.5765 17.2235 49.5765C19.3882 49.5765 21.0823 51.3647 21.0823 53.4353C21.1764 55.6 19.3882 57.2941 17.2235 57.2941ZM51.3882 14.0941C53.0823 15.7882 52.9882 18.5176 51.2941 20.1176L47.9059 23.3176L40.9411 17.1059L47.247 10.047L51.3882 14.0941Z" fill="#2DA884"/>
</svg>
